<svg width="41" height="37" viewBox="0 0 41 37" fill="none" xmlns="http://www.w3.org/2000/svg">
<path d="M20.7586 34.2503C19.8613 33.1287 18.8892 33.783 18.5154 34.2503C4.15843 30.4368 3.56023 19.0148 5.05574 13.7805C6.17737 9.94822 10.7761 2.17156 20.1978 1.72291C29.6195 1.27426 34.966 9.20048 36.4615 13.2197C37.693 18.1549 36.6007 22.7536 35.9007 24.436C39.2656 24.436 40.4807 20.8842 40.6676 19.1082C41.3406 15.519 39.0787 13.5001 37.8636 12.9393C34.2743 1.72293 24.5909 -0.333396 20.1978 0.0404821C9.43012 0.264809 4.49492 8.92008 3.37329 13.2197C1.35435 14.3413 0.849609 17.4258 0.849609 18.8278C0.849609 22.4171 3.09288 24.0621 4.21451 24.436C6.90644 32.5118 15.057 35.4654 18.7958 35.9328C19.4687 36.3814 20.0109 36.3066 20.1978 36.2132C21.3194 35.7645 21.039 34.7177 20.7586 34.2503Z" fill="#0A557F"/>
<path d="M14.5886 16.5848C21.3184 15.4632 25.9918 10.8832 27.4874 8.7334C26.1414 13.4442 30.8522 15.4633 35.8996 16.5848C34.778 5.08819 24.6833 2.56448 18.2339 3.12528C7.29794 4.52733 5.33508 15.4633 6.17626 19.6694C6.45667 17.4261 8.98039 17.1456 9.2608 17.1456C9.48513 17.1456 12.9061 16.7718 14.5886 16.5848Z" fill="#0A557F"/>
<ellipse cx="14.8697" cy="20.5103" rx="3.0845" ry="3.08449" fill="#0A557F"/>
<ellipse cx="26.0855" cy="20.5103" rx="3.0845" ry="3.08449" fill="#0A557F"/>
<path d="M24.9649 27.8008C22.0486 29.8197 18.3285 28.8289 16.833 28.0812C16.833 30.9974 19.824 31.4461 21.3195 31.4461C24.9649 31.1657 25.4322 28.8289 24.9649 27.8008Z" fill="#0A557F"/>
</svg>
